# xmcd
#
# Track frame offsets:
#	150
#	18404
#	34482
#	50217
#	66749
#	80199
#	94456
#	113325
#	130935
#	143389
#	156954
#	173854
#	189937
#	205905
#	225125
#	240378
#	256812
#	267617
#	282889
#	300320
#	315761
#
# Disc length: 4405
#
# Revision: 2
# Processed by: cddbd v1.5.1PL0 Copyright (c) Steve Scherf et al.
# Submitted via: audiograbber 1.83.01
# Normalized: r1:DSETVAR1
#
DISCID=1f113315
DTITLE=Various Artist - Club rotation 16 cd 2
DYEAR=2001
DGENRE=Dance
TTITLE0=Gigi D'agostino - L'amour toujours
TTITLE1=Noname - I'm your dj
TTITLE2=Awex - It's your future 2001
TTITLE3=Joy Kitikonti - Joyenergizer
TTITLE4=Hypetraxx - Paranoid
TTITLE5=Felix da house cat - Silver Screen - shower scene
TTITLE6=Toktok vs. soffy o - Missy Queens gonna die
TTITLE7=Moguai pres. punx - The rock
TTITLE8=Da klubb kings - Let's go
TTITLE9=DJ Gius - Amnesia
TTITLE10=Sq1 - Dance
TTITLE11=Marc 'Oh - Never stop that feeling 2001
TTITLE12=Jan Wayne meets Lena - Total eclipse of the heart
TTITLE13=Balloon - Bad and sexy
TTITLE14=Kosmonova vs. C-star - The daydream
TTITLE15=Toby Lee Connor - Wicked games
TTITLE16=Vanessa Mae - White bird
TTITLE17=Rocco - Everybody
TTITLE18=Dumonde vs. lange - Memeroy
TTITLE19=Plug'n'play - Time to bob
TTITLE20=Roger Sanchez - Another chance
EXTD=
EXTT0=
EXTT1=
EXTT2=
EXTT3=
EXTT4=
EXTT5=
EXTT6=
EXTT7=
EXTT8=
EXTT9=
EXTT10=
EXTT11=
EXTT12=
EXTT13=
EXTT14=
EXTT15=
EXTT16=
EXTT17=
EXTT18=
EXTT19=
EXTT20=
PLAYORDER=
